<?xml version="1.0" encoding="UTF-8"?>
<svg id="Capa_2" data-name="Capa 2" xmlns="http://www.w3.org/2000/svg" xmlns:xlink="http://www.w3.org/1999/xlink" viewBox="0 0 282.37 267.76">
  <defs>
    <style>
      .cls-1 {
        fill: url(#Degradado_sin_nombre_20);
      }
    </style>
    <linearGradient id="Degradado_sin_nombre_20" data-name="Degradado sin nombre 20" x1="0" y1="133.88" x2="282.37" y2="133.88" gradientUnits="userSpaceOnUse">
      <stop offset="0" stop-color="#af6efb"/>
      <stop offset=".53" stop-color="#90a6f6"/>
      <stop offset=".98" stop-color="#7ccbf3"/>
    </linearGradient>
  </defs>
  <g id="Capa_1-2" data-name="Capa 1">
    <g>
      <path class="cls-1" d="M263.73,63.57c-.96-1.53-1.95-3.05-2.98-4.53-10.23-14.73-23.77-27.53-39.36-36.45C197.04,8.66,170.15,1.8,142.28.08c-.41-.03-.88,0-1.28-.08,88.04,17.14,127.71,89.46,127.71,145.44,0,4.45-.22,8.85-.56,13.21.55-7.1-.91-15.01-1.95-22.01-1.04-6.96-2.49-13.87-4.4-20.65-3.54-12.58-8.66-24.7-15.39-35.91-12.75-21.25-31.1-38.59-52.34-51.22-16.31-9.69-34.2-17.52-52.77-21.31h0c-21.51-3.91-47.76-3.11-74.6,10.88-20.36,11.53-36.48,27.12-48.28,46.86C6.14,85.83,0,109,0,134.81c0,24.24,5.78,48.74,18.64,69.38.96,1.53,1.95,3.05,2.98,4.53,10.23,14.73,23.77,27.53,39.36,36.45,24.34,13.92,51.23,20.79,79.11,22.51.41.03.88,0,1.28.08C53.34,250.63,13.66,178.3,13.66,122.32c0-4.45.22-8.85.56-13.21-.55,7.1.91,15.01,1.95,22.01,1.04,6.96,2.49,13.87,4.4,20.65,3.54,12.58,8.66,24.7,15.39,35.91,12.75,21.25,31.1,38.59,52.34,51.22,16.29,9.68,34.34,17.53,52.89,21.33h0c.06.02.12.03.18.04,0,0,0,0,0,0h0c21.48,3.87,47.53,3.02,74.31-10.93,20.36-11.53,36.48-27.12,48.28-46.86,12.27-20.54,18.41-43.71,18.41-69.52,0-24.24-5.78-48.74-18.64-69.38ZM221.12,180.49c-8.02,14.16-19.04,25.18-33.07,33.07-13.88,7.8-29.47,11.73-46.77,11.82-17.3-.08-33.08-2.16-46.96-9.96-14.03-7.89-25.05-18.92-33.07-33.07-8.01-14.16-12.02-30.01-12.02-47.54s4.01-33.39,12.02-47.54c8.02-14.16,19.04-25.18,33.07-33.07,13.89-7.81,29.58-13.61,46.91-13.69,17.32.08,32.93,4.01,46.82,11.82,14.03,7.89,25.05,18.92,33.07,33.07,8.01,14.16,12.02,30.01,12.02,47.54s-4.01,33.39-12.02,47.54Z"/>
      <path class="cls-1" d="M263.73,63.57c-.96-1.53-1.95-3.05-2.98-4.53-10.23-14.73-23.77-27.53-39.36-36.45C197.04,8.66,170.15,1.8,142.28.08c-.41-.03-.88,0-1.28-.08,88.04,17.14,127.71,89.46,127.71,145.44,0,4.45-.22,8.85-.56,13.21.55-7.1-.91-15.01-1.95-22.01-1.04-6.96-2.49-13.87-4.4-20.65-3.54-12.58-8.66-24.7-15.39-35.91-12.75-21.25-31.1-38.59-52.34-51.22-16.31-9.69-34.2-17.52-52.77-21.31h0c-21.51-3.91-47.76-3.11-74.6,10.88-20.36,11.53-36.48,27.12-48.28,46.86C6.14,85.83,0,109,0,134.81c0,24.24,5.78,48.74,18.64,69.38.96,1.53,1.95,3.05,2.98,4.53,10.23,14.73,23.77,27.53,39.36,36.45,24.34,13.92,51.23,20.79,79.11,22.51.41.03.88,0,1.28.08C53.34,250.63,13.66,178.3,13.66,122.32c0-4.45.22-8.85.56-13.21-.55,7.1.91,15.01,1.95,22.01,1.04,6.96,2.49,13.87,4.4,20.65,3.54,12.58,8.66,24.7,15.39,35.91,12.75,21.25,31.1,38.59,52.34,51.22,16.29,9.68,34.34,17.53,52.89,21.33h0c.06.02.12.03.18.04,0,0,0,0,0,0h0c21.48,3.87,47.53,3.02,74.31-10.93,20.36-11.53,36.48-27.12,48.28-46.86,12.27-20.54,18.41-43.71,18.41-69.52,0-24.24-5.78-48.74-18.64-69.38ZM221.12,180.49c-8.02,14.16-19.04,25.18-33.07,33.07-13.88,7.8-29.47,11.73-46.77,11.82-17.3-.08-33.08-2.16-46.96-9.96-14.03-7.89-25.05-18.92-33.07-33.07-8.01-14.16-12.02-30.01-12.02-47.54s4.01-33.39,12.02-47.54c8.02-14.16,19.04-25.18,33.07-33.07,13.89-7.81,29.58-13.61,46.91-13.69,17.32.08,32.93,4.01,46.82,11.82,14.03,7.89,25.05,18.92,33.07,33.07,8.01,14.16,12.02,30.01,12.02,47.54s-4.01,33.39-12.02,47.54Z"/>
    </g>
  </g>
</svg>